<?xml version="1.0" encoding="UTF-8"?>
<!DOCTYPE svg PUBLIC "-//W3C//DTD SVG 1.1//EN" "http://www.w3.org/Graphics/SVG/1.1/DTD/svg11.dtd">
<svg xmlns="http://www.w3.org/2000/svg" version="1.1" width="64px" height="64px" style="shape-rendering:geometricPrecision; text-rendering:geometricPrecision; image-rendering:optimizeQuality; fill-rule:evenodd; clip-rule:evenodd" xmlns:xlink="http://www.w3.org/1999/xlink">
<g><path style="opacity:0.969" fill="#f8f9f9" d="M 29.5,60.5 C 26.7628,60.5987 24.0961,60.2653 21.5,59.5C 20.1283,58.4884 18.795,57.4884 17.5,56.5C 15.351,55.2638 13.0177,54.2638 10.5,53.5C 9.35653,49.8423 7.18987,46.8423 4,44.5C 3.91238,39.3439 3.07904,34.3439 1.5,29.5C 4.38057,24.9048 6.2139,19.9048 7,14.5C 8.57934,12.9588 10.4127,11.7922 12.5,11C 13.9284,8.81528 15.5951,6.81528 17.5,5C 22.47,4.96444 27.1367,3.79777 31.5,1.5C 35.8633,3.79777 40.53,4.96444 45.5,5C 47.4049,6.81528 49.0716,8.81528 50.5,11C 55.8706,12.8971 58.3706,16.7304 58,22.5C 59,23.8333 60,25.1667 61,26.5C 60.0996,32.3848 59.4329,38.3848 59,44.5C 55.3062,47.1867 52.8062,50.6867 51.5,55C 47.1066,55.6962 43.44,57.6962 40.5,61C 36.8125,61.4501 33.1458,61.2834 29.5,60.5 Z"/></g>
<g><path style="opacity:1" fill="#709ef6" d="M 33.5,14.5 C 32.1667,14.5 30.8333,14.5 29.5,14.5C 29.1159,12.3352 29.7826,10.6685 31.5,9.5C 33.2174,10.6685 33.8841,12.3352 33.5,14.5 Z"/></g>
<g><path style="opacity:1" fill="#193d52" d="M 29.5,14.5 C 30.8333,14.5 32.1667,14.5 33.5,14.5C 35.2261,16.8201 35.8928,19.4867 35.5,22.5C 32.8333,23.8333 30.1667,23.8333 27.5,22.5C 27.3225,21.3052 26.9891,20.1385 26.5,19C 27.3146,17.3566 28.3146,15.8566 29.5,14.5 Z"/></g>
<g><path style="opacity:1" fill="#e1e6e8" d="M 29.5,16.5 C 32.9103,16.3838 34.2436,18.0504 33.5,21.5C 29.065,22.0776 27.7317,20.4109 29.5,16.5 Z"/></g>
<g><path style="opacity:1" fill="#4c89f3" d="M 27.5,22.5 C 30.1667,23.8333 32.8333,23.8333 35.5,22.5C 36.4013,23.2905 37.0679,24.2905 37.5,25.5C 40.1993,30.8987 42.866,36.232 45.5,41.5C 46.7143,43.808 46.7143,46.1413 45.5,48.5C 42.2819,45.742 39.7819,42.4086 38,38.5C 33.6667,39.8333 29.3333,39.8333 25,38.5C 23.2181,42.4086 20.7181,45.742 17.5,48.5C 16.359,46.5787 16.1923,44.5787 17,42.5C 17.9704,40.7262 18.8037,38.8928 19.5,37C 17.0051,34.9936 15.0051,32.4936 13.5,29.5C 14.7598,28.6184 15.9264,27.6184 17,26.5C 18.6667,28.1667 20.3333,29.8333 22,31.5C 23.8588,28.4362 25.6921,25.4362 27.5,22.5 Z"/></g>
<g><path style="opacity:1" fill="#f1f5fe" d="M 30.5,24.5 C 33.6606,26.9201 35.3273,30.2534 35.5,34.5C 32.8333,34.5 30.1667,34.5 27.5,34.5C 27.9205,30.9925 28.9205,27.6592 30.5,24.5 Z"/></g>
<g><path style="opacity:1" fill="#4bdc8c" d="M 37.5,25.5 C 47.1569,24.6577 50.9902,28.9911 49,38.5C 48.5776,40.4257 47.4109,41.4257 45.5,41.5C 42.866,36.232 40.1993,30.8987 37.5,25.5 Z"/></g>
<g><path style="opacity:0.427" fill="#7d7d7d" d="M 10.5,53.5 C 13.0177,54.2638 15.351,55.2638 17.5,56.5C 14.509,56.8337 12.1757,55.8337 10.5,53.5 Z"/></g>
<g><path style="opacity:0.176" fill="#595959" d="M 21.5,59.5 C 24.0961,60.2653 26.7628,60.5987 29.5,60.5C 28.5514,61.1524 27.3847,61.4857 26,61.5C 23.9919,61.6932 22.4919,61.0265 21.5,59.5 Z"/></g>
</svg>
