<?xml version="1.0" standalone="no"?>
<!DOCTYPE svg PUBLIC "-//W3C//DTD SVG 20010904//EN"
 "http://www.w3.org/TR/2001/REC-SVG-20010904/DTD/svg10.dtd">
<svg version="1.0" xmlns="http://www.w3.org/2000/svg"
 width="512.000000pt" height="512.000000pt" viewBox="0 0 512.000000 512.000000"
 preserveAspectRatio="xMidYMid meet">

<g transform="translate(0.000000,512.000000) scale(0.100000,-0.100000)"
fill="#000000" stroke="none">
<path d="M1820 4896 c-370 -132 -677 -329 -945 -607 -364 -377 -580 -828 -656
-1369 -20 -140 -18 -496 4 -640 108 -703 487 -1302 1066 -1684 793 -523 1847
-527 2636 -8 287 188 512 410 697 686 121 181 261 474 289 606 34 160 -128
302 -282 248 -19 -6 -70 -35 -114 -64 -981 -637 -2293 -171 -2655 943 -72 221
-101 472 -80 688 29 301 118 559 284 824 36 58 68 121 71 143 16 95 -32 190
-117 232 -64 32 -113 33 -198 2z m27 -269 c-70 -107 -172 -324 -215 -457 -182
-561 -108 -1178 201 -1677 542 -874 1650 -1203 2572 -764 66 32 147 74 179 95
32 20 61 35 64 32 9 -10 -77 -199 -145 -319 -178 -314 -470 -611 -781 -794
-622 -367 -1387 -402 -2037 -93 -236 111 -406 232 -601 425 -252 250 -419 518
-529 849 -180 539 -146 1117 96 1626 105 220 225 393 394 568 208 216 435 375
705 493 103 46 118 48 97 16z"/>
<path d="M3495 4391 c-47 -29 -61 -49 -97 -148 -19 -50 -50 -117 -69 -148
-103 -171 -275 -307 -467 -370 -127 -41 -174 -142 -112 -243 20 -33 46 -47
174 -97 223 -85 409 -286 482 -519 33 -105 111 -158 196 -136 62 17 92 51 122
137 93 264 291 462 541 539 112 35 163 114 135 207 -15 51 -55 90 -112 106
-240 71 -455 268 -542 496 -50 132 -63 153 -105 175 -50 25 -107 26 -146 1z
m126 -456 c67 -103 212 -247 316 -315 l82 -53 -72 -47 c-150 -98 -275 -225
-349 -357 l-31 -54 -37 63 c-81 134 -230 283 -361 360 l-58 35 77 49 c129 81
299 259 356 372 10 19 19 32 21 30 2 -2 27 -39 56 -83z"/>
</g>
</svg>
