<?xml version="1.0" encoding="UTF-8"?>
<!DOCTYPE svg PUBLIC "-//W3C//DTD SVG 1.1//EN" "http://www.w3.org/Graphics/SVG/1.1/DTD/svg11.dtd">
<svg xmlns="http://www.w3.org/2000/svg" version="1.1" width="64px" height="64px" style="shape-rendering:geometricPrecision; text-rendering:geometricPrecision; image-rendering:optimizeQuality; fill-rule:evenodd; clip-rule:evenodd" xmlns:xlink="http://www.w3.org/1999/xlink">
<g><path style="opacity:0.941" fill="#3fc5fe" d="M 31.5,-0.5 C 33.1667,-0.5 34.8333,-0.5 36.5,-0.5C 40.8062,3.13957 44.8062,7.13957 48.5,11.5C 47.8333,11.5 47.1667,11.5 46.5,11.5C 34.6783,10.5049 22.6783,10.1716 10.5,10.5C 17.4107,6.64247 24.4107,2.9758 31.5,-0.5 Z"/></g>
<g><path style="opacity:1" fill="#02589c" d="M 46.5,11.5 C 47.1667,11.5 47.8333,11.5 48.5,11.5C 53.5,15.8333 58.1667,20.5 62.5,25.5C 62.5,34.1667 62.5,42.8333 62.5,51.5C 58.9581,51.1872 55.6248,51.5206 52.5,52.5C 51.8333,52.5 51.5,52.1667 51.5,51.5C 38.1396,38.8063 25.1396,25.8063 12.5,12.5C 23.6544,11.5052 34.9877,11.1719 46.5,11.5 Z"/></g>
<g><path style="opacity:0.999" fill="#2ab5f5" d="M 12.5,12.5 C 25.1396,25.8063 38.1396,38.8063 51.5,51.5C 38.8333,51.5 26.1667,51.5 13.5,51.5C 12.5,51.1667 11.8333,50.5 11.5,49.5C 11.5,48.5 11.5,47.5 11.5,46.5C 11.1719,34.9877 11.5052,23.6544 12.5,12.5 Z"/></g>
<g><path style="opacity:0.943" fill="#015699" d="M 9.5,11.5 C 10.1667,23.1667 10.8333,34.8333 11.5,46.5C 11.5,47.5 11.5,48.5 11.5,49.5C 6.76652,45.7696 2.76652,41.4363 -0.5,36.5C -0.5,35.1667 -0.5,33.8333 -0.5,32.5C 3.06985,25.6906 6.40319,18.6906 9.5,11.5 Z"/></g>
<g><path style="opacity:1" fill="#3099d3" d="M 9.5,11.5 C 9.5,10.8333 9.83333,10.5 10.5,10.5C 22.6783,10.1716 34.6783,10.5049 46.5,11.5C 34.9877,11.1719 23.6544,11.5052 12.5,12.5C 11.5052,23.6544 11.1719,34.9877 11.5,46.5C 10.8333,34.8333 10.1667,23.1667 9.5,11.5 Z"/></g>
<g><path style="opacity:0.188" fill="#064374" d="M 62.5,25.5 C 62.8333,25.5 63.1667,25.5 63.5,25.5C 63.5,34.5 63.5,43.5 63.5,52.5C 59.8333,52.5 56.1667,52.5 52.5,52.5C 55.6248,51.5206 58.9581,51.1872 62.5,51.5C 62.5,42.8333 62.5,34.1667 62.5,25.5 Z"/></g>
<g><path style="opacity:0.93" fill="#40c3fe" d="M 13.5,51.5 C 26.1667,51.5 38.8333,51.5 51.5,51.5C 51.5,52.1667 51.8333,52.5 52.5,52.5C 52.756,56.2693 52.4227,59.9359 51.5,63.5C 42.5,63.5 33.5,63.5 24.5,63.5C 20.8333,59.5 17.1667,55.5 13.5,51.5 Z"/></g>
</svg>
