<?xml version="1.0" encoding="UTF-8"?>
<!DOCTYPE svg PUBLIC "-//W3C//DTD SVG 1.1//EN" "http://www.w3.org/Graphics/SVG/1.1/DTD/svg11.dtd">
<svg xmlns="http://www.w3.org/2000/svg" version="1.1" width="64px" height="64px" style="shape-rendering:geometricPrecision; text-rendering:geometricPrecision; image-rendering:optimizeQuality; fill-rule:evenodd; clip-rule:evenodd" xmlns:xlink="http://www.w3.org/1999/xlink">
<g><path style="opacity:0.955" fill="#c12b30" d="M -0.5,56.5 C -0.5,55.8333 -0.5,55.1667 -0.5,54.5C 6.86076,49.5079 7.36076,43.8412 1,37.5C 0.333333,33.5 0.333333,29.5 1,25.5C 7.17526,19.2129 6.67526,13.5462 -0.5,8.5C -0.5,7.5 -0.5,6.5 -0.5,5.5C 4.79607,4.49054 10.1294,4.32387 15.5,5C 18.7591,6.21059 21.5925,8.04392 24,10.5C 37.3684,7.92503 49.035,11.2584 59,20.5C 65.8578,33.9231 62.3578,43.7564 48.5,50C 40.7153,53.2591 32.7153,54.0924 24.5,52.5C 16.925,58.7132 8.59171,60.0465 -0.5,56.5 Z"/></g>
<g><path style="opacity:1" fill="#fdfbfb" d="M 52.5,41.5 C 47.5436,43.0961 42.5436,44.5961 37.5,46C 32.6252,46.7528 27.7919,46.5862 23,45.5C 19.8434,47.3172 16.6767,49.1505 13.5,51C 11.9343,51.765 10.6009,51.5983 9.5,50.5C 10.3567,48.5965 11.0234,46.5965 11.5,44.5C 1.16637,28.8507 5.4997,19.0174 24.5,15C 34.6566,13.2771 43.99,15.2771 52.5,21C 59.1214,27.8774 59.1214,34.7107 52.5,41.5 Z"/></g>
<g><path style="opacity:1" fill="#c63b3c" d="M 17.5,28.5 C 22.3276,28.3852 23.6609,30.5519 21.5,35C 15.7377,35.4178 14.4044,33.2511 17.5,28.5 Z"/></g>
<g><path style="opacity:1" fill="#c43437" d="M 29.5,28.5 C 34.3276,28.3852 35.6609,30.5519 33.5,35C 28.5705,35.427 27.2372,33.2604 29.5,28.5 Z"/></g>
<g><path style="opacity:1" fill="#c73c3d" d="M 41.5,28.5 C 47.0159,28.4734 48.3492,30.64 45.5,35C 40.5705,35.427 39.2372,33.2604 41.5,28.5 Z"/></g>
<g><path style="opacity:1" fill="#cdc2c2" d="M 52.5,41.5 C 43.727,48.1335 33.8937,50.1335 23,47.5C 19.6756,50.5786 15.8423,52.7452 11.5,54C 5.67969,55.2398 5.01303,54.0731 9.5,50.5C 10.6009,51.5983 11.9343,51.765 13.5,51C 16.6767,49.1505 19.8434,47.3172 23,45.5C 27.7919,46.5862 32.6252,46.7528 37.5,46C 42.5436,44.5961 47.5436,43.0961 52.5,41.5 Z"/></g>
</svg>
