<?xml version="1.0" encoding="UTF-8"?>
<!DOCTYPE svg PUBLIC "-//W3C//DTD SVG 1.1//EN" "http://www.w3.org/Graphics/SVG/1.1/DTD/svg11.dtd">
<svg xmlns="http://www.w3.org/2000/svg" version="1.1" width="64px" height="64px" style="shape-rendering:geometricPrecision; text-rendering:geometricPrecision; image-rendering:optimizeQuality; fill-rule:evenodd; clip-rule:evenodd" xmlns:xlink="http://www.w3.org/1999/xlink">
<g><path style="opacity:0.782" fill="#ced3d7" d="M 31.5,13.5 C 30.391,13.4431 29.391,13.1098 28.5,12.5C 28.1667,11.1667 27.8333,11.1667 27.5,12.5C 24.4467,12.8893 21.78,12.2227 19.5,10.5C 18.8333,9.16667 18.1667,9.16667 17.5,10.5C 16.8333,10.1667 16.1667,9.83333 15.5,9.5C 15.4142,8.5041 15.7476,7.67076 16.5,7C 20.5477,5.11499 24.7143,3.61499 29,2.5C 29.4074,6.28516 30.2407,9.95183 31.5,13.5 Z M 26.5,5.5 C 27.0431,5.55999 27.3764,5.89333 27.5,6.5C 25.9255,7.63088 24.2588,7.79755 22.5,7C 24.0581,6.78997 25.3915,6.28997 26.5,5.5 Z M 22.5,10.5 C 23.2506,9.42654 24.2506,9.25988 25.5,10C 24.6477,11.7284 23.6477,11.895 22.5,10.5 Z"/></g>
<g><path style="opacity:0.738" fill="#b71e1d" d="M 15.5,9.5 C 16.1667,9.83333 16.8333,10.1667 17.5,10.5C 18.1667,10.5 18.8333,10.5 19.5,10.5C 21.78,12.2227 24.4467,12.8893 27.5,12.5C 27.8333,12.5 28.1667,12.5 28.5,12.5C 29.391,13.1098 30.391,13.4431 31.5,13.5C 42.1857,13.6775 50.8524,17.8442 57.5,26C 50.8407,27.2765 44.174,28.4431 37.5,29.5C 36.8333,29.8333 36.1667,30.1667 35.5,30.5C 34.8333,30.5 34.5,30.8333 34.5,31.5C 32.3792,31.3253 30.3792,31.6586 28.5,32.5C 27.609,33.1098 26.609,33.4431 25.5,33.5C 23.326,33.7497 21.6594,34.7497 20.5,36.5C 19.5084,36.3284 18.8417,36.6618 18.5,37.5C 16.0326,37.7549 14.0326,38.7549 12.5,40.5C 11.8333,40.5 11.1667,40.5 10.5,40.5C 14.5453,36.6199 18.0453,32.2865 21,27.5C 21.6667,24.8333 21.6667,22.1667 21,19.5C 19.224,16.0589 17.0574,12.8922 14.5,10C 14.7284,9.60123 15.0618,9.43456 15.5,9.5 Z M 20.5,14.5 C 21.4971,13.2875 22.4971,13.4542 23.5,15C 22.4232,15.4696 21.4232,15.3029 20.5,14.5 Z M 26.5,15.5 C 28.332,16.1405 28.6653,17.1405 27.5,18.5C 25.4807,17.8671 25.1474,16.8671 26.5,15.5 Z M 30.5,15.5 C 34.2434,15.4592 34.4101,16.1259 31,17.5C 30.5357,16.9056 30.369,16.2389 30.5,15.5 Z M 38.5,16.5 C 44.8556,17.9388 44.5223,18.7722 37.5,19C 38.2524,18.3292 38.5858,17.4959 38.5,16.5 Z M 33.5,18.5 C 35.9752,18.7467 35.9752,19.4134 33.5,20.5C 32.537,20.0302 32.537,19.3635 33.5,18.5 Z M 23.5,19.5 C 27.0507,20.1855 27.2173,21.1855 24,22.5C 23.5172,21.552 23.3505,20.552 23.5,19.5 Z M 42.5,20.5 C 43.2389,20.369 43.9056,20.5357 44.5,21C 42.9641,25.6326 40.6308,26.2992 37.5,23C 39.3146,22.2432 40.9812,21.4098 42.5,20.5 Z M 44.5,25.5 C 46.3291,19.7362 48.9958,19.2362 52.5,24C 49.9373,25.0793 47.2706,25.5793 44.5,25.5 Z M 34.5,24.5 C 36.1958,24.6854 37.5291,25.5187 38.5,27C 36.5527,27.9913 34.5527,28.3247 32.5,28C 33.8228,27.1841 34.4894,26.0174 34.5,24.5 Z M 25.5,29.5 C 28.0009,29.5109 28.1676,30.1776 26,31.5C 25.5357,30.9056 25.369,30.2389 25.5,29.5 Z"/></g>
<g><path style="opacity:0.764" fill="#cfd7db" d="M 37.5,29.5 C 39.6872,38.9872 38.3539,47.9872 33.5,56.5C 25.8995,57.4004 18.5662,56.2337 11.5,53C 6.66101,49.0155 6.32768,44.8488 10.5,40.5C 11.1667,40.5 11.8333,40.5 12.5,40.5C 14.0326,38.7549 16.0326,37.7549 18.5,37.5C 17.5876,38.7382 17.4209,40.0715 18,41.5C 19.0945,39.9221 19.9278,38.2554 20.5,36.5C 21.6594,34.7497 23.326,33.7497 25.5,33.5C 27.0786,37.317 28.0786,36.9837 28.5,32.5C 30.3792,31.6586 32.3792,31.3253 34.5,31.5C 35.1667,31.5 35.5,31.1667 35.5,30.5C 36.1667,30.1667 36.8333,29.8333 37.5,29.5 Z M 23.5,35.5 C 24.3636,36.6883 25.3636,37.8549 26.5,39C 21.0306,42.6071 20.0306,41.4405 23.5,35.5 Z M 30.5,32.5 C 33.7742,33.3785 34.1075,34.7119 31.5,36.5C 30.5713,35.3112 30.238,33.9778 30.5,32.5 Z M 35.5,36.5 C 36.4345,37.5676 36.7678,38.901 36.5,40.5C 31.6711,40.0332 31.3377,38.6998 35.5,36.5 Z M 12.5,40.5 C 13.4959,40.5858 14.3292,40.2524 15,39.5C 15.49,40.7932 15.6567,42.1266 15.5,43.5C 13.8008,43.6602 12.1341,43.4935 10.5,43C 11.3805,42.2917 12.0472,41.4584 12.5,40.5 Z M 28.5,40.5 C 33.8038,42.3237 33.6371,43.9903 28,45.5C 28.0187,43.8925 28.1854,42.2259 28.5,40.5 Z M 23.5,42.5 C 24.3764,42.3691 25.0431,42.7025 25.5,43.5C 24.8895,47.093 23.5562,47.4263 21.5,44.5C 22.2427,43.8182 22.9094,43.1515 23.5,42.5 Z M 33.5,44.5 C 35.6516,45.0768 35.985,46.2435 34.5,48C 32.5,48.6667 30.5,48.6667 28.5,48C 30.2331,46.8111 31.8998,45.6444 33.5,44.5 Z M 12.5,45.5 C 13.2389,45.369 13.9056,45.5357 14.5,46C 13.3816,47.0736 12.3816,48.2402 11.5,49.5C 10.5,49.1667 9.83333,48.5 9.5,47.5C 10.6016,46.8243 11.6016,46.1577 12.5,45.5 Z M 17.5,45.5 C 22.5154,48.1105 21.8487,49.2772 15.5,49C 16.8228,48.1841 17.4894,47.0174 17.5,45.5 Z M 24.5,49.5 C 31.1419,50.4921 31.1419,51.4921 24.5,52.5C 23.4376,51.5754 23.4376,50.5754 24.5,49.5 Z M 31.5,52.5 C 32.0431,52.56 32.3764,52.8933 32.5,53.5C 31.277,54.6139 29.9437,54.7805 28.5,54C 29.7375,53.7679 30.7375,53.2679 31.5,52.5 Z"/></g>
</svg>
