<?xml version="1.0" encoding="UTF-8"?>
<!DOCTYPE svg PUBLIC "-//W3C//DTD SVG 1.1//EN" "http://www.w3.org/Graphics/SVG/1.1/DTD/svg11.dtd">
<svg xmlns="http://www.w3.org/2000/svg" version="1.1" width="64px" height="64px" style="shape-rendering:geometricPrecision; text-rendering:geometricPrecision; image-rendering:optimizeQuality; fill-rule:evenodd; clip-rule:evenodd" xmlns:xlink="http://www.w3.org/1999/xlink">
<g><path style="opacity:0.971" fill="#0074b6" d="M 43.5,-0.5 C 44.1667,-0.5 44.8333,-0.5 45.5,-0.5C 45.7828,0.28913 46.2828,0.955796 47,1.5C 47.4994,7.15688 47.6661,12.8236 47.5,18.5C 41.1759,22.334 35.1759,26.6673 29.5,31.5C 24.9289,29.2624 20.9289,26.2624 17.5,22.5C 26.7664,15.5703 35.4331,7.90362 43.5,-0.5 Z"/></g>
<g><path style="opacity:1" fill="#24adf2" d="M 45.5,-0.5 C 46.8333,-0.5 48.1667,-0.5 49.5,-0.5C 54.1314,2.1514 58.7981,4.81807 63.5,7.5C 63.5,14.8333 63.5,22.1667 63.5,29.5C 58.1667,30.8333 52.8333,30.8333 47.5,29.5C 47.5,25.8333 47.5,22.1667 47.5,18.5C 47.6661,12.8236 47.4994,7.15688 47,1.5C 46.2828,0.955796 45.7828,0.28913 45.5,-0.5 Z"/></g>
<g><path style="opacity:1" fill="#21a3f1" d="M 47.5,29.5 C 52.8333,30.8333 58.1667,30.8333 63.5,29.5C 63.5,38.1667 63.5,46.8333 63.5,55.5C 58.7981,58.1819 54.1314,60.8486 49.5,63.5C 47.8333,63.5 46.1667,63.5 44.5,63.5C 45.209,62.596 46.209,62.2627 47.5,62.5C 47.5,56.5 47.5,50.5 47.5,44.5C 47.5,39.5 47.5,34.5 47.5,29.5 Z"/></g>
<g><path style="opacity:0.977" fill="#0087d1" d="M 17.5,22.5 C 20.9289,26.2624 24.9289,29.2624 29.5,31.5C 33.8093,34.8024 38.1426,38.1357 42.5,41.5C 36.5043,43.2076 30.1709,44.2076 23.5,44.5C 21.8333,43.1667 20.1667,41.8333 18.5,40.5C 18.4894,38.9826 17.8228,37.8159 16.5,37C 13.9348,34.9205 11.2682,33.0872 8.5,31.5C 6.10507,28.1385 3.10507,25.4719 -0.5,23.5C -0.5,21.8333 -0.5,20.1667 -0.5,18.5C 1.23453,16.7649 3.23453,15.4316 5.5,14.5C 9.76548,16.7649 13.7655,19.4316 17.5,22.5 Z"/></g>
<g><path style="opacity:0.951" fill="#006daf" d="M 8.5,31.5 C 11.2682,33.0872 13.9348,34.9205 16.5,37C 17.8228,37.8159 18.4894,38.9826 18.5,40.5C 14.1777,43.1496 9.84436,45.8163 5.5,48.5C 3.23453,47.5684 1.23453,46.2351 -0.5,44.5C -0.5,42.8333 -0.5,41.1667 -0.5,39.5C 3.10507,37.5281 6.10507,34.8615 8.5,31.5 Z"/></g>
<g><path style="opacity:0.98" fill="#007dcb" d="M 42.5,41.5 C 43.922,42.925 45.5887,43.925 47.5,44.5C 47.5,50.5 47.5,56.5 47.5,62.5C 46.209,62.2627 45.209,62.596 44.5,63.5C 44.1667,63.5 43.8333,63.5 43.5,63.5C 36.8333,57.1667 30.1667,50.8333 23.5,44.5C 30.1709,44.2076 36.5043,43.2076 42.5,41.5 Z"/></g>
</svg>
