<?xml version="1.0" encoding="UTF-8"?>
<!DOCTYPE svg PUBLIC "-//W3C//DTD SVG 1.1//EN" "http://www.w3.org/Graphics/SVG/1.1/DTD/svg11.dtd">
<svg xmlns="http://www.w3.org/2000/svg" version="1.1" width="64px" height="64px" style="shape-rendering:geometricPrecision; text-rendering:geometricPrecision; image-rendering:optimizeQuality; fill-rule:evenodd; clip-rule:evenodd" xmlns:xlink="http://www.w3.org/1999/xlink">
<g><path style="opacity:0.996" fill="#983af4" d="M 0.5,-0.5 C 1.83333,-0.5 3.16667,-0.5 4.5,-0.5C 4.12624,7.35113 5.12624,15.0178 7.5,22.5C 9.66824,28.8075 12.8349,34.4742 17,39.5C 28.7143,51.4411 42.8809,58.1078 59.5,59.5C 60.8333,60.5 62.1667,61.5 63.5,62.5C 63.5,62.8333 63.5,63.1667 63.5,63.5C 60.8333,63.5 58.1667,63.5 55.5,63.5C 20.6814,56.3472 2.34802,35.0138 0.5,-0.5 Z"/></g>
<g><path style="opacity:0.996" fill="#9f34f1" d="M 4.5,-0.5 C 5.5,-0.5 6.5,-0.5 7.5,-0.5C 7.85165,26.699 20.8516,44.8656 46.5,54C 49.4318,54.9533 52.4318,55.4533 55.5,55.5C 57.1667,56.5 58.5,57.8333 59.5,59.5C 42.8809,58.1078 28.7143,51.4411 17,39.5C 12.8349,34.4742 9.66824,28.8075 7.5,22.5C 5.12624,15.0178 4.12624,7.35113 4.5,-0.5 Z"/></g>
<g><path style="opacity:0.993" fill="#a52fef" d="M 7.5,-0.5 C 8.5,-0.5 9.5,-0.5 10.5,-0.5C 11.2824,27.093 24.9491,44.4264 51.5,51.5C 53.1667,52.5 54.5,53.8333 55.5,55.5C 52.4318,55.4533 49.4318,54.9533 46.5,54C 20.8516,44.8656 7.85165,26.699 7.5,-0.5 Z"/></g>
<g><path style="opacity:0.988" fill="#ab29ec" d="M 10.5,-0.5 C 11.5,-0.5 12.5,-0.5 13.5,-0.5C 13.9897,22.889 24.9897,38.5557 46.5,46.5C 48.5,47.8333 50.1667,49.5 51.5,51.5C 24.9491,44.4264 11.2824,27.093 10.5,-0.5 Z"/></g>
<g><path style="opacity:0.982" fill="#b322e9" d="M 13.5,-0.5 C 15.8333,-0.5 18.1667,-0.5 20.5,-0.5C 20.1177,11.382 24.1177,21.382 32.5,29.5C 32.3893,30.1174 32.056,30.6174 31.5,31C 36.7031,36.0354 41.7031,41.202 46.5,46.5C 24.9897,38.5557 13.9897,22.889 13.5,-0.5 Z"/></g>
<g><path style="opacity:0.977" fill="#c116e2" d="M 20.5,-0.5 C 23.1667,-0.5 25.8333,-0.5 28.5,-0.5C 28.429,9.00856 31.429,17.3419 37.5,24.5C 36.1667,26.5 34.5,28.1667 32.5,29.5C 24.1177,21.382 20.1177,11.382 20.5,-0.5 Z"/></g>
<g><path style="opacity:0.989" fill="#ca15d6" d="M 28.5,-0.5 C 29.5,-0.5 30.5,-0.5 31.5,-0.5C 31.1896,8.58641 34.1896,16.2531 40.5,22.5C 40.0269,23.9063 39.0269,24.573 37.5,24.5C 31.429,17.3419 28.429,9.00856 28.5,-0.5 Z"/></g>
<g><path style="opacity:0.989" fill="#cb19cb" d="M 31.5,-0.5 C 32.1667,-0.5 32.8333,-0.5 33.5,-0.5C 33.3436,3.58174 33.8436,7.58174 35,11.5C 36.8809,15.2619 38.7143,18.9286 40.5,22.5C 34.1896,16.2531 31.1896,8.58641 31.5,-0.5 Z"/></g>
<g><path style="opacity:0.983" fill="#d022b4" d="M 36.5,-0.5 C 37.5,-0.5 38.5,-0.5 39.5,-0.5C 39.3531,6.25773 41.3531,12.2577 45.5,17.5C 45.1583,18.3382 44.4916,18.6716 43.5,18.5C 38.2364,13.3884 35.903,7.05509 36.5,-0.5 Z"/></g>
<g><path style="opacity:0.991" fill="#d52d99" d="M 44.5,-0.5 C 45.1667,-0.5 45.8333,-0.5 46.5,-0.5C 45.5036,4.50627 46.8369,8.83961 50.5,12.5C 50.1667,13.5 49.5,14.1667 48.5,14.5C 45.203,10.1779 43.8697,5.1779 44.5,-0.5 Z"/></g>
<g><path style="opacity:0.999" fill="#d8318e" d="M 46.5,-0.5 C 47.5,-0.5 48.5,-0.5 49.5,-0.5C 48.4681,3.70467 49.4681,7.37133 52.5,10.5C 52.1667,11.5 51.5,12.1667 50.5,12.5C 46.8369,8.83961 45.5036,4.50627 46.5,-0.5 Z"/></g>
<g><path style="opacity:0.997" fill="#de3b75" d="M 52.5,-0.5 C 53.5,-0.5 54.5,-0.5 55.5,-0.5C 55.448,1.90291 55.7814,4.23625 56.5,6.5C 56.1667,7.5 55.5,8.16667 54.5,8.5C 52.7319,5.83752 52.0653,2.83752 52.5,-0.5 Z"/></g>
<g><path style="opacity:0.99" fill="#d328a5" d="M 39.5,-0.5 C 41.1667,-0.5 42.8333,-0.5 44.5,-0.5C 43.8697,5.1779 45.203,10.1779 48.5,14.5C 47.8333,15.8333 46.8333,16.8333 45.5,17.5C 41.3531,12.2577 39.3531,6.25773 39.5,-0.5 Z"/></g>
<g><path style="opacity:0.992" fill="#da3584" d="M 49.5,-0.5 C 50.5,-0.5 51.5,-0.5 52.5,-0.5C 52.0653,2.83752 52.7319,5.83752 54.5,8.5C 54.1667,9.5 53.5,10.1667 52.5,10.5C 49.4681,7.37133 48.4681,3.70467 49.5,-0.5 Z"/></g>
<g><path style="opacity:0.973" fill="#e14264" d="M 55.5,-0.5 C 58.1667,-0.5 60.8333,-0.5 63.5,-0.5C 63.5,-0.166667 63.5,0.166667 63.5,0.5C 61.1667,2.5 58.8333,4.5 56.5,6.5C 55.7814,4.23625 55.448,1.90291 55.5,-0.5 Z"/></g>
<g><path style="opacity:1" fill="#cd1ec0" d="M 33.5,-0.5 C 34.5,-0.5 35.5,-0.5 36.5,-0.5C 35.903,7.05509 38.2364,13.3884 43.5,18.5C 42.4884,19.8717 41.4884,21.205 40.5,22.5C 38.7143,18.9286 36.8809,15.2619 35,11.5C 33.8436,7.58174 33.3436,3.58174 33.5,-0.5 Z"/></g>
<g><path style="opacity:0.998" fill="#9240f6" d="M -0.5,-0.5 C -0.166667,-0.5 0.166667,-0.5 0.5,-0.5C 2.34802,35.0138 20.6814,56.3472 55.5,63.5C 50.8333,63.5 46.1667,63.5 41.5,63.5C 21.1667,55.8333 7.16667,41.8333 -0.5,21.5C -0.5,14.1667 -0.5,6.83333 -0.5,-0.5 Z"/></g>
<g><path style="opacity:0.997" fill="#8050fe" d="M -0.5,32.5 C 1.74109,36.593 4.24109,40.593 7,44.5C 11.1667,47.3333 14.6667,50.8333 17.5,55C 21.6803,57.6964 25.6803,60.5298 29.5,63.5C 19.5,63.5 9.5,63.5 -0.5,63.5C -0.5,53.1667 -0.5,42.8333 -0.5,32.5 Z"/></g>
<g><path style="opacity:1" fill="#8c45f9" d="M -0.5,21.5 C 7.16667,41.8333 21.1667,55.8333 41.5,63.5C 37.5,63.5 33.5,63.5 29.5,63.5C 25.6803,60.5298 21.6803,57.6964 17.5,55C 14.6667,50.8333 11.1667,47.3333 7,44.5C 4.24109,40.593 1.74109,36.593 -0.5,32.5C -0.5,28.8333 -0.5,25.1667 -0.5,21.5 Z"/></g>
</svg>
